<svg width="13" height="14" viewBox="0 0 13 14" fill="none" xmlns="http://www.w3.org/2000/svg">
<path d="M12.9215 8.19428V6.91032C12.9215 6.37171 12.9215 5.89299 12.9132 5.46588H0.086409C0.0781251 5.89299 0.078125 6.37171 0.078125 6.91032V8.19428C0.078125 10.6153 0.0781251 11.8259 0.830471 12.5779C1.58282 13.3301 2.7937 13.3301 5.21547 13.3301H7.78415C10.2059 13.3301 11.4168 13.3301 12.1691 12.5779C12.9215 11.8259 12.9215 10.6153 12.9215 8.19428Z" fill="#E8EEF7" fill-opacity="0.65"/>
<path d="M3.7706 0.81156C3.7706 0.545647 3.55496 0.330078 3.28897 0.330078C3.02298 0.330078 2.80734 0.545647 2.80734 0.81156V1.82541C1.88305 1.89939 1.27626 2.08098 0.830471 2.52664C0.384677 2.9723 0.203033 3.5789 0.129023 4.50292H12.8706C12.7966 3.5789 12.6149 2.9723 12.1691 2.52664C11.7233 2.08098 11.1166 1.89939 10.1923 1.82541V0.81156C10.1923 0.545647 9.97664 0.330078 9.71066 0.330078C9.44467 0.330078 9.22903 0.545647 9.22903 0.81156V1.7828C8.80179 1.77452 8.32293 1.77452 7.78415 1.77452H5.21547C4.67668 1.77452 4.19781 1.77452 3.7706 1.7828V0.81156Z" fill="#E8EEF7" fill-opacity="0.65"/>
</svg>
