<svg width="20" height="20" viewBox="0 0 20 20" fill="none" xmlns="http://www.w3.org/2000/svg">
<path d="M7.98634 18.075C8.18606 18.075 8.38129 18.0158 8.54734 17.9048C8.7134 17.7938 8.84283 17.6361 8.91925 17.4516C8.99568 17.2671 9.01568 17.0641 8.97672 16.8682C8.93775 16.6723 8.84158 16.4924 8.70036 16.3512C8.55914 16.21 8.37922 16.1138 8.18334 16.0748C7.98746 16.0359 7.78443 16.0559 7.59992 16.1323C7.4154 16.2087 7.2577 16.3381 7.14674 16.5042C7.03579 16.6703 6.97656 16.8655 6.97656 17.0652C6.97656 17.333 7.08295 17.5898 7.27232 17.7792C7.46169 17.9686 7.71853 18.075 7.98634 18.075Z" fill="#E8EEF7"/>
<path d="M15.0488 18.075C15.2486 18.075 15.4438 18.0158 15.6098 17.9048C15.7759 17.7938 15.9053 17.6361 15.9818 17.4516C16.0582 17.2671 16.0782 17.0641 16.0392 16.8682C16.0003 16.6723 15.9041 16.4924 15.7629 16.3512C15.6216 16.21 15.4417 16.1138 15.2458 16.0748C15.05 16.0359 14.8469 16.0559 14.6624 16.1323C14.4779 16.2087 14.3202 16.3381 14.2092 16.5042C14.0983 16.6703 14.0391 16.8655 14.0391 17.0652C14.0391 17.333 14.1454 17.5898 14.3348 17.7792C14.5242 17.9686 14.781 18.075 15.0488 18.075Z" fill="#E8EEF7"/>
<path d="M17.912 5.23451C17.841 5.14502 17.7504 5.07301 17.6472 5.02403C17.544 4.97505 17.4309 4.95041 17.3167 4.952H6.30867L5.69319 2.50017C5.65095 2.33654 5.55584 2.19145 5.42264 2.08745C5.28945 1.98345 5.12562 1.92635 4.95664 1.92505H2.68642C2.48654 1.92766 2.29557 2.00823 2.15422 2.14958C2.01287 2.29093 1.9323 2.4819 1.92969 2.68179C1.9323 2.88167 2.01287 3.07264 2.15422 3.21399C2.29557 3.35534 2.48654 3.43591 2.68642 3.43852H4.36134L4.95664 5.89035V5.96098L6.82326 13.0239C6.98999 13.6123 7.34649 14.1292 7.83734 14.4942C8.32818 14.8591 8.92585 15.0516 9.53742 15.0418H13.7045C14.3296 15.0439 14.9369 14.8333 15.4265 14.4445C15.916 14.0558 16.2588 13.5121 16.3985 12.9028L18.0532 5.8399C18.0726 5.7347 18.0701 5.62663 18.0458 5.52246C18.0215 5.41829 17.9759 5.32026 17.912 5.23451Z" fill="#E8EEF7"/>
</svg>
