<svg width="17" height="17" viewBox="0 0 17 17" fill="none" xmlns="http://www.w3.org/2000/svg">
<path d="M15.2313 12.3335C16.3663 11.0361 16.9969 9.37376 17.0078 7.65C17.0078 3.4 13.1913 0 8.50781 0C3.82431 0 0.0078125 3.4 0.0078125 7.65C0.0078125 11.9 3.82431 15.3 8.50781 15.3C9.36989 15.303 10.2282 15.1857 11.0578 14.9515L14.9593 16.9065C15.0665 16.9647 15.1859 16.9967 15.3078 17C15.4995 16.9989 15.6853 16.933 15.8348 16.813C15.959 16.7134 16.0528 16.5809 16.1054 16.4306C16.158 16.2804 16.1673 16.1183 16.1323 15.963L15.2313 12.3335ZM5.10781 8.5C4.9397 8.5 4.77536 8.45015 4.63558 8.35675C4.4958 8.26335 4.38685 8.1306 4.32252 7.97528C4.25818 7.81996 4.24135 7.64906 4.27415 7.48417C4.30694 7.31929 4.3879 7.16783 4.50677 7.04896C4.62565 6.93009 4.7771 6.84913 4.94199 6.81633C5.10687 6.78354 5.27778 6.80037 5.43309 6.8647C5.58841 6.92904 5.72116 7.03798 5.81456 7.17777C5.90796 7.31755 5.95781 7.48189 5.95781 7.65C5.95781 7.87543 5.86826 8.09163 5.70885 8.25104C5.54945 8.41045 5.33325 8.5 5.10781 8.5ZM8.50781 8.5C8.3397 8.5 8.17536 8.45015 8.03558 8.35675C7.8958 8.26335 7.78685 8.1306 7.72252 7.97528C7.65818 7.81996 7.64135 7.64906 7.67415 7.48417C7.70694 7.31929 7.7879 7.16783 7.90677 7.04896C8.02565 6.93009 8.1771 6.84913 8.34199 6.81633C8.50687 6.78354 8.67778 6.80037 8.83309 6.8647C8.98841 6.92904 9.12116 7.03798 9.21456 7.17777C9.30796 7.31755 9.35781 7.48189 9.35781 7.65C9.35781 7.87543 9.26826 8.09163 9.10885 8.25104C8.94945 8.41045 8.73325 8.5 8.50781 8.5ZM11.9078 8.5C11.7397 8.5 11.5754 8.45015 11.4356 8.35675C11.2958 8.26335 11.1868 8.1306 11.1225 7.97528C11.0582 7.81996 11.0413 7.64906 11.0741 7.48417C11.1069 7.31929 11.1879 7.16783 11.3068 7.04896C11.4256 6.93009 11.5771 6.84913 11.742 6.81633C11.9069 6.78354 12.0778 6.80037 12.2331 6.8647C12.3884 6.92904 12.5212 7.03798 12.6146 7.17777C12.708 7.31755 12.7578 7.48189 12.7578 7.65C12.7578 7.87543 12.6683 8.09163 12.5089 8.25104C12.3494 8.41045 12.1332 8.5 11.9078 8.5Z" fill="#2F3955"/>
</svg>
