<svg width="13" height="14" viewBox="0 0 13 14" fill="none" xmlns="http://www.w3.org/2000/svg">
<path d="M8.6791 9.37323H7.30643V7.87266C9.02307 7.50123 10.314 5.97127 10.314 4.14481C10.314 2.04123 8.60255 0.330078 6.49897 0.330078C4.39539 0.330078 2.68359 2.04156 2.68359 4.14513C2.68359 5.97159 3.97423 7.50123 5.6912 7.87298V9.37356H4.31853C3.87249 9.37356 3.51107 9.73497 3.51107 10.181C3.51107 10.627 3.87249 10.9885 4.31853 10.9885H5.6912V12.5226C5.6912 12.9687 6.05261 13.3301 6.49865 13.3301C6.94469 13.3301 7.3061 12.9687 7.3061 12.5226V10.9885H8.67877C9.12481 10.9885 9.48623 10.627 9.48623 10.181C9.48623 9.73497 9.12513 9.37323 8.6791 9.37323ZM4.2985 4.14513C4.2985 2.93202 5.28618 1.94498 6.49897 1.94498C7.71177 1.94498 8.69944 2.93234 8.69944 4.14513C8.69944 5.3589 7.71177 6.34561 6.49897 6.34561C5.28618 6.34561 4.2985 5.35793 4.2985 4.14513Z" fill="#E8EEF7" fill-opacity="0.65"/>
<path d="M8.6791 9.32323H7.35643V7.91278C9.07584 7.52176 10.364 5.98135 10.364 4.14481C10.364 2.01361 8.63016 0.280078 6.49897 0.280078C4.36779 0.280078 2.63359 2.01394 2.63359 4.14513C2.63359 5.98168 3.92148 7.52177 5.6412 7.9131V9.32356H4.31853C3.84487 9.32356 3.46107 9.70736 3.46107 10.181C3.46107 10.6547 3.84487 11.0385 4.31853 11.0385H5.6412V12.5226C5.6412 12.9963 6.025 13.3801 6.49865 13.3801C6.9723 13.3801 7.3561 12.9963 7.3561 12.5226V11.0385H8.67877C9.15243 11.0385 9.53623 10.6547 9.53623 10.181C9.53623 9.70741 9.1528 9.32323 8.6791 9.32323ZM4.3485 4.14513C4.3485 2.95964 5.31378 1.99498 6.49897 1.99498C7.68416 1.99498 8.64944 2.95996 8.64944 4.14513C8.64944 5.33127 7.68417 6.29561 6.49897 6.29561C5.31379 6.29561 4.3485 5.33032 4.3485 4.14513Z" stroke="#E8EEF7" stroke-opacity="0.65" stroke-width="0.1"/>
</svg>
