<svg width="24" height="25" viewBox="0 0 24 25" fill="none" xmlns="http://www.w3.org/2000/svg">
<path fill-rule="evenodd" clip-rule="evenodd" d="M24 12.3301C24 18.9574 18.6274 24.3301 12 24.3301C5.37258 24.3301 0 18.9574 0 12.3301C0 5.70266 5.37258 0.330078 12 0.330078C18.6274 0.330078 24 5.70266 24 12.3301ZM12 19.2301C12.497 19.2301 12.9 18.8271 12.9 18.3301V11.1301C12.9 10.633 12.497 10.2301 12 10.2301C11.503 10.2301 11.1 10.633 11.1 11.1301V18.3301C11.1 18.8271 11.503 19.2301 12 19.2301ZM12 6.33008C12.6628 6.33008 13.2 6.86734 13.2 7.53008C13.2 8.19281 12.6628 8.73008 12 8.73008C11.3372 8.73008 10.8 8.19281 10.8 7.53008C10.8 6.86734 11.3372 6.33008 12 6.33008Z" fill="#B7CBEA"/>
</svg>
