<svg width="24" height="25" viewBox="0 0 24 25" fill="none" xmlns="http://www.w3.org/2000/svg">
<path fill-rule="evenodd" clip-rule="evenodd" d="M24 12.2458C24 18.8732 18.6274 24.2458 12 24.2458C5.37258 24.2458 0 18.8732 0 12.2458C0 5.61843 5.37258 0.24585 12 0.24585C18.6274 0.24585 24 5.61843 24 12.2458ZM12 19.1459C12.497 19.1459 12.9 18.7429 12.9 18.2458V11.0458C12.9 10.5488 12.497 10.1459 12 10.1459C11.503 10.1459 11.1 10.5488 11.1 11.0458V18.2458C11.1 18.7429 11.503 19.1459 12 19.1459ZM12 6.24585C12.6628 6.24585 13.2 6.78311 13.2 7.44585C13.2 8.10859 12.6628 8.64585 12 8.64585C11.3372 8.64585 10.8 8.10859 10.8 7.44585C10.8 6.78311 11.3372 6.24585 12 6.24585Z" fill="#2F3956"/>
</svg>
