<svg width="20" height="16" viewBox="0 0 20 16" fill="none" xmlns="http://www.w3.org/2000/svg">
<path d="M17.2233 0.65332H2.77668C1.24324 0.65332 0 1.89656 0 3.43V12.57C0 14.1034 1.24324 15.3467 2.77668 15.3467H17.2233C18.7567 15.3467 20 14.1034 20 12.57V3.43C20 1.89656 18.7567 0.65332 17.2233 0.65332ZM6.95961 10.5672L3.07133 13.8844C2.79707 14.1184 2.38477 14.0859 2.15074 13.8114C1.91668 13.5371 1.94922 13.1248 2.22379 12.8908L6.11207 9.57359C6.38629 9.33953 6.79855 9.37207 7.03262 9.64664C7.26668 9.92086 7.23414 10.3332 6.95961 10.5672ZM10 9.30609C9.47992 9.30481 8.97578 9.13199 8.58164 8.79113L8.58195 8.79145L8.5807 8.79051C8.58102 8.79082 8.58137 8.79082 8.58164 8.79113L2.6157 3.61305C2.34305 3.37641 2.31402 2.96414 2.55031 2.69184C2.78691 2.41918 3.19922 2.39016 3.47148 2.62645L9.4391 7.80582C9.56664 7.91934 9.7768 8.00129 10 8C10.2229 8.00066 10.4295 7.92094 10.5641 7.80359L10.567 7.80105L16.5285 2.62648C16.8008 2.3902 17.2131 2.41922 17.4497 2.69187C17.6859 2.96414 17.657 3.37645 17.3843 3.61309L11.4167 8.79274C11.0239 9.13004 10.5204 9.30543 10 9.30609ZM17.8495 13.8114C17.6155 14.0859 17.2032 14.1184 16.929 13.8844L13.0407 10.5672C12.7662 10.3331 12.7336 9.92086 12.9677 9.64664C13.2017 9.37207 13.614 9.33957 13.8882 9.57359L17.7765 12.8908C18.0511 13.1248 18.0836 13.5371 17.8495 13.8114Z" fill="#E8EEF7"/>
</svg>
