<svg width="13" height="14" viewBox="0 0 13 14" fill="none" xmlns="http://www.w3.org/2000/svg">
<path d="M7.15 7.80838C8.58591 7.80838 9.75 8.97649 9.75 10.4174V11.3958C9.75 11.9361 9.31346 12.3741 8.775 12.3741H0.975C0.43652 12.3741 0 11.9361 0 11.3958V10.4174C0 8.97649 1.16406 7.80838 2.6 7.80838H7.15ZM11.05 7.80851C12.127 7.80851 13 8.68461 13 9.76526V10.7436C13 11.284 12.5635 11.722 12.025 11.722H11.05V10.4174C11.05 9.35062 10.5396 8.40356 9.75052 7.80851H11.05ZM4.875 1.28589C6.49044 1.28589 7.8 2.59999 7.8 4.22101C7.8 5.84203 6.49044 7.15613 4.875 7.15613C3.25957 7.15613 1.95 5.84203 1.95 4.22101C1.95 2.59999 3.25957 1.28589 4.875 1.28589ZM10.4 3.24264C11.477 3.24264 12.35 4.1187 12.35 5.19938C12.35 6.28009 11.477 7.15613 10.4 7.15613C9.32301 7.15613 8.45 6.28009 8.45 5.19938C8.45 4.1187 9.32301 3.24264 10.4 3.24264Z" fill="#E8EEF7" fill-opacity="0.65"/>
</svg>
