<svg width="17" height="17" viewBox="0 0 17 17" fill="none" xmlns="http://www.w3.org/2000/svg">
<path d="M11.8664 10.7726L11.4362 11.2002C11.4362 11.2002 10.4138 12.2169 7.62295 9.44185C4.83214 6.6669 5.85458 5.65026 5.85458 5.65026L6.12544 5.38092C6.79279 4.71741 6.85569 3.65214 6.27344 2.87446L5.08255 1.28364C4.36196 0.3211 2.96955 0.19395 2.14362 1.01518L0.661224 2.48916C0.251695 2.89637 -0.0227419 3.42423 0.0105402 4.0098C0.0956818 5.50789 0.77348 8.73116 4.55565 12.4918C8.56645 16.4798 12.3298 16.6383 13.8687 16.4949C14.3555 16.4495 14.7788 16.2016 15.1199 15.8624L16.4616 14.5284C17.3672 13.6279 17.1119 12.0841 15.9531 11.4543L14.1488 10.4734C13.3879 10.0598 12.4611 10.1813 11.8664 10.7726Z" fill="#2F3955"/>
</svg>
