<svg width="13" height="14" viewBox="0 0 13 14" fill="none" xmlns="http://www.w3.org/2000/svg">
<path fill-rule="evenodd" clip-rule="evenodd" d="M7.82015 0.331055L6.6919 1.45853C6.28261 1.86781 6.26238 2.4973 6.58763 2.95249L4.53889 5.00124C4.51165 5.02848 4.49454 5.06194 4.47741 5.09461C3.48067 4.68144 2.25204 4.86274 1.46693 5.64785L0.8032 6.31235L3.63551 9.14388L0.113801 12.6656C-0.0379336 12.8173 -0.0379336 13.0632 0.113801 13.2157C0.190054 13.2912 0.289653 13.3293 0.389252 13.3293C0.488851 13.3293 0.58845 13.2912 0.663924 13.2157L4.18563 9.694L7.01716 12.5263L7.68166 11.8618C8.19598 11.3483 8.47921 10.6643 8.47921 9.93676C8.47921 9.55628 8.39751 9.19056 8.25045 8.85209C8.26912 8.83964 8.29013 8.83186 8.30648 8.81474L10.3646 6.75665C10.5622 6.89982 10.7972 6.98075 11.0462 6.98075C11.3582 6.98075 11.6508 6.85936 11.8717 6.63838L13 5.51013L7.82015 0.331055Z" fill="#E8EEF7" fill-opacity="0.65"/>
</svg>
