<svg width="16" height="17" viewBox="0 0 16 17" fill="none" xmlns="http://www.w3.org/2000/svg">
<path fill-rule="evenodd" clip-rule="evenodd" d="M6.22656 0.165039C5.60734 0.165039 5.07283 0.514155 4.82394 1.01903C4.21789 1.02327 3.74555 1.05005 3.32391 1.20865C2.82014 1.39815 2.38195 1.72028 2.05947 2.1382C1.73414 2.55983 1.58141 3.10023 1.37122 3.84404L1.33009 3.98941L0.875486 6.51788C0.71099 6.62709 0.568118 6.75642 0.443865 6.90962C-0.35484 7.89411 0.025499 9.35834 0.786185 12.2868C1.26999 14.1494 1.5119 15.0806 2.23343 15.6228C2.95495 16.165 3.95235 16.165 5.94715 16.165H10.0529C12.0477 16.165 13.0451 16.165 13.7666 15.6228C14.4881 15.0806 14.73 14.1494 15.2139 12.2868C15.9745 9.35834 16.3549 7.89411 15.5561 6.90962C15.4318 6.75631 15.2888 6.62688 15.1241 6.51761L14.6695 3.98941L14.6284 3.84404C14.4182 3.10023 14.2655 2.55983 13.9402 2.1382C13.6177 1.72028 13.1795 1.39815 12.6758 1.20865C12.2541 1.05005 11.7818 1.02327 11.1757 1.01903C10.9268 0.514155 10.3923 0.165039 9.77312 0.165039H6.22656ZM13.6902 6.04938L13.3698 4.26757C13.1182 3.38035 13.0269 3.10154 12.8724 2.90136C12.6988 2.67632 12.4629 2.50287 12.1916 2.40083C11.9967 2.32752 11.7612 2.30595 11.1744 2.30024C10.925 2.80376 10.3913 3.15171 9.77312 3.15171H6.22656C5.60836 3.15171 5.07461 2.80376 4.82519 2.30024C4.23839 2.30595 4.00292 2.32752 3.80804 2.40083C3.53677 2.50287 3.30083 2.67632 3.12719 2.90136C2.97273 3.10153 2.8814 3.38035 2.62979 4.26757L2.30942 6.04943C3.19442 5.92504 4.37336 5.92504 5.94715 5.92504H10.0529C11.6265 5.92504 12.8052 5.92504 13.6902 6.04938ZM4.45351 8.69837C4.82076 8.69837 5.11848 8.98492 5.11848 9.33837V12.7517C5.11848 13.1052 4.82076 13.3917 4.45351 13.3917C4.08626 13.3917 3.78853 13.1052 3.78853 12.7517V9.33837C3.78853 8.98492 4.08626 8.69837 4.45351 8.69837ZM12.2115 9.33837C12.2115 8.98492 11.9138 8.69837 11.5466 8.69837C11.1793 8.69837 10.8816 8.98492 10.8816 9.33837V12.7517C10.8816 13.1052 11.1793 13.3917 11.5466 13.3917C11.9138 13.3917 12.2115 13.1052 12.2115 12.7517V9.33837ZM8.00004 8.69837C8.36728 8.69837 8.66501 8.98492 8.66501 9.33837V12.7517C8.66501 13.1052 8.36728 13.3917 8.00004 13.3917C7.63279 13.3917 7.33506 13.1052 7.33506 12.7517V9.33837C7.33506 8.98492 7.63279 8.69837 8.00004 8.69837Z" fill="#E8EEF7"/>
</svg>
