<svg width="16" height="17" viewBox="0 0 16 17" fill="none" xmlns="http://www.w3.org/2000/svg">
<path fill-rule="evenodd" clip-rule="evenodd" d="M6.22656 0.830078C5.60734 0.830078 5.07283 1.17919 4.82394 1.68407C4.21789 1.68831 3.74555 1.71509 3.32391 1.87369C2.82014 2.06319 2.38195 2.38532 2.05947 2.80324C1.73414 3.22486 1.58141 3.76527 1.37122 4.50908L1.33009 4.65445L0.875486 7.18291C0.71099 7.29213 0.568118 7.42146 0.443865 7.57465C-0.35484 8.55914 0.025499 10.0234 0.786185 12.9518C1.26999 14.8144 1.5119 15.7457 2.23343 16.2879C2.95495 16.8301 3.95235 16.8301 5.94715 16.8301H10.0529C12.0477 16.8301 13.0451 16.8301 13.7666 16.2879C14.4881 15.7457 14.73 14.8144 15.2139 12.9518C15.9745 10.0234 16.3549 8.55914 15.5561 7.57465C15.4318 7.42134 15.2888 7.29192 15.1241 7.18265L14.6695 4.65445L14.6284 4.50908C14.4182 3.76527 14.2655 3.22486 13.9402 2.80324C13.6177 2.38532 13.1795 2.06319 12.6758 1.87369C12.2541 1.71509 11.7818 1.68831 11.1757 1.68407C10.9268 1.17919 10.3923 0.830078 9.77312 0.830078H6.22656ZM13.6902 6.71442L13.3698 4.93261C13.1182 4.04539 13.0269 3.76658 12.8724 3.5664C12.6988 3.34136 12.4629 3.1679 12.1916 3.06587C11.9967 2.99256 11.7612 2.97099 11.1744 2.96528C10.925 3.4688 10.3913 3.81674 9.77312 3.81674H6.22656C5.60836 3.81674 5.07461 3.4688 4.82519 2.96528C4.23839 2.97099 4.00292 2.99256 3.80804 3.06587C3.53677 3.1679 3.30083 3.34136 3.12719 3.56639C2.97273 3.76657 2.8814 4.04539 2.62979 4.93261L2.30942 6.71447C3.19442 6.59008 4.37336 6.59008 5.94715 6.59008H10.0529C11.6265 6.59008 12.8052 6.59008 13.6902 6.71442ZM4.45351 9.36341C4.82076 9.36341 5.11848 9.64996 5.11848 10.0034V13.4167C5.11848 13.7702 4.82076 14.0567 4.45351 14.0567C4.08626 14.0567 3.78853 13.7702 3.78853 13.4167V10.0034C3.78853 9.64996 4.08626 9.36341 4.45351 9.36341ZM12.2115 10.0034C12.2115 9.64996 11.9138 9.36341 11.5466 9.36341C11.1793 9.36341 10.8816 9.64996 10.8816 10.0034V13.4167C10.8816 13.7702 11.1793 14.0567 11.5466 14.0567C11.9138 14.0567 12.2115 13.7702 12.2115 13.4167V10.0034ZM8.00004 9.36341C8.36728 9.36341 8.66501 9.64996 8.66501 10.0034V13.4167C8.66501 13.7702 8.36728 14.0567 8.00004 14.0567C7.63279 14.0567 7.33506 13.7702 7.33506 13.4167V10.0034C7.33506 9.64996 7.63279 9.36341 8.00004 9.36341Z" fill="#2F3956"/>
</svg>
