<svg width="13" height="14" viewBox="0 0 13 14" fill="none" xmlns="http://www.w3.org/2000/svg">
<path d="M11.6726 0.330078H7.69024C7.51612 0.330811 7.34926 0.399926 7.22564 0.522523L0.38932 7.3311C0.2659 7.45436 0.167989 7.60074 0.101187 7.76186C0.0343842 7.92298 0 8.09568 0 8.2701C0 8.44451 0.0343842 8.61722 0.101187 8.77834C0.167989 8.93946 0.2659 9.08584 0.38932 9.2091L4.11943 12.9386C4.36723 13.1878 4.70378 13.3286 5.05527 13.3301C5.23044 13.3302 5.4039 13.2957 5.56565 13.2285C5.72741 13.1613 5.87426 13.0628 5.99775 12.9386L12.8075 6.10343C12.9301 5.97983 12.9993 5.813 13 5.63891V1.65729C13 1.30529 12.8601 0.967708 12.6112 0.718808C12.3623 0.469908 12.0246 0.330078 11.6726 0.330078ZM9.34954 4.97531C9.15263 4.97531 8.96015 4.91693 8.79643 4.80755C8.6327 4.69817 8.5051 4.54271 8.42974 4.36083C8.35439 4.17894 8.33468 3.9788 8.37309 3.78571C8.4115 3.59262 8.50632 3.41525 8.64556 3.27604C8.78479 3.13683 8.96219 3.04203 9.15531 3.00362C9.34844 2.96521 9.54861 2.98492 9.73053 3.06026C9.91245 3.1356 10.0679 3.26319 10.1773 3.42688C10.2867 3.59058 10.3451 3.78303 10.3451 3.9799C10.3451 4.2439 10.2402 4.49708 10.0535 4.68376C9.86681 4.87043 9.61359 4.97531 9.34954 4.97531Z" fill="#E8EEF7" fill-opacity="0.65"/>
</svg>
