<svg width="15" height="14" viewBox="0 0 15 14" fill="none" xmlns="http://www.w3.org/2000/svg">
<path d="M7.50117 6.44229C8.83615 6.44229 9.91836 5.36007 9.91836 4.0251C9.91836 2.69012 8.83615 1.60791 7.50117 1.60791C6.1662 1.60791 5.08398 2.69012 5.08398 4.0251C5.08398 5.36007 6.1662 6.44229 7.50117 6.44229Z" fill="#E8EEF7"/>
<path fill-rule="evenodd" clip-rule="evenodd" d="M7.50039 2.16567C6.47349 2.16567 5.64102 2.99814 5.64102 4.02505C5.64102 5.05195 6.47349 5.88442 7.50039 5.88442C8.52729 5.88442 9.35977 5.05195 9.35977 4.02505C9.35977 2.99814 8.52729 2.16567 7.50039 2.16567ZM4.52539 4.02505C4.52539 2.382 5.85734 1.05005 7.50039 1.05005C9.14344 1.05005 10.4754 2.382 10.4754 4.02505C10.4754 5.6681 9.14344 7.00005 7.50039 7.00005C5.85734 7.00005 4.52539 5.6681 4.52539 4.02505Z" fill="#E8EEF7"/>
<path d="M3.66907 12.3922H11.3334C12.1827 12.3922 12.8369 11.6619 12.4403 10.911C11.8569 9.80629 10.5268 8.48755 7.50124 8.48755C4.47567 8.48755 3.14559 9.80629 2.56217 10.911C2.16555 11.6619 2.81976 12.3922 3.66907 12.3922Z" fill="#E8EEF7"/>
<path fill-rule="evenodd" clip-rule="evenodd" d="M3.82932 8.80599C4.71358 8.27816 5.90501 7.92969 7.50057 7.92969C9.09613 7.92969 10.2876 8.27816 11.1718 8.80599C12.0565 9.33408 12.6011 10.0223 12.9329 10.6504L12.9329 10.6505C13.2406 11.2331 13.1399 11.841 12.7898 12.2807C12.4545 12.7017 11.9117 12.95 11.3327 12.95H3.66839C3.08941 12.95 2.54667 12.7017 2.21137 12.2807C1.86126 11.841 1.76051 11.2331 2.06825 10.6504L2.5615 10.9109L2.06825 10.6504C2.4 10.0223 2.94463 9.33408 3.82932 8.80599ZM4.40114 9.76393C3.71854 10.1714 3.30642 10.6949 3.05475 11.1714L3.05475 11.1714C2.96587 11.3397 2.99392 11.4725 3.08409 11.5857C3.18906 11.7175 3.39807 11.8344 3.66839 11.8344H11.3327C11.6031 11.8344 11.8121 11.7175 11.917 11.5857C12.0072 11.4724 12.0353 11.3397 11.9464 11.1715C11.6947 10.6949 11.2826 10.1714 10.6 9.76393C9.91697 9.35621 8.93058 9.04531 7.50057 9.04531C6.07056 9.04531 5.08417 9.35621 4.40114 9.76393Z" fill="#E8EEF7"/>
</svg>
