<svg width="20" height="20" viewBox="0 0 20 20" fill="none" xmlns="http://www.w3.org/2000/svg">
<rect width="20" height="20" rx="10" fill="#994F3E"/>
<path d="M8.77148 14.3369C8.77148 14.1136 8.8444 13.9222 8.99023 13.7627C9.13607 13.6032 9.3457 13.5234 9.61914 13.5234C9.89258 13.5234 10.1022 13.6032 10.248 13.7627C10.3939 13.9222 10.4668 14.1136 10.4668 14.3369C10.4668 14.5602 10.3939 14.7516 10.248 14.9111C10.1022 15.0706 9.89258 15.1504 9.61914 15.1504C9.3457 15.1504 9.13607 15.0706 8.99023 14.9111C8.8444 14.7516 8.77148 14.5602 8.77148 14.3369ZM9.05859 12.1973L8.95605 5.04688H10.2822L10.1797 12.1973H9.05859Z" fill="#E8EEF7"/>
</svg>
