<svg width="17" height="17" viewBox="0 0 17 17" fill="none" xmlns="http://www.w3.org/2000/svg">
<path fill-rule="evenodd" clip-rule="evenodd" d="M0.0078125 8.50229C0.0078125 3.81639 3.81944 0.00476074 8.50535 0.00476074V0.00490179H8.51028C13.1962 0.00490179 17.0078 3.81653 17.0078 8.50243C17.0078 13.1882 13.1962 17 8.51028 17C6.78176 17 5.17815 16.4855 3.83439 15.5963L0.567256 16.6402L1.62636 13.483C0.607297 12.0841 0.0078125 10.3607 0.0078125 8.50229ZM5.58388 3.90147C5.83357 3.91162 5.95848 3.92657 6.1233 4.32119C6.17653 4.44967 6.24965 4.62707 6.32979 4.82147C6.55807 5.37526 6.84325 6.06709 6.8876 6.15955C6.94752 6.28446 7.00758 6.45435 6.92256 6.61917C6.8482 6.77721 6.7825 6.85314 6.67313 6.97953C6.66493 6.98901 6.65649 6.99876 6.64778 7.00886C6.59432 7.07089 6.54179 7.12649 6.48939 7.18194C6.41936 7.25607 6.34956 7.32994 6.27811 7.41857L6.2721 7.42563C6.1589 7.55845 6.03587 7.70279 6.17829 7.94813C6.32308 8.19289 6.8226 9.00709 7.55701 9.66142C8.4286 10.4366 9.14841 10.7276 9.47309 10.8589C9.50203 10.8706 9.52783 10.881 9.55031 10.8904C9.75503 10.9754 9.99993 10.9554 10.1498 10.7955C10.3123 10.6204 10.5075 10.3465 10.7107 10.0614C10.745 10.0132 10.7796 9.96473 10.8143 9.91633C10.984 9.67651 11.1988 9.64648 11.4236 9.73135C11.6534 9.81129 12.8675 10.4108 13.1172 10.5357C13.1682 10.5612 13.2156 10.5841 13.2594 10.6051C13.4299 10.687 13.5441 10.742 13.5918 10.8254C13.6518 10.9303 13.6518 11.4249 13.447 12.0045C13.2421 12.5838 12.4278 13.0636 11.7784 13.2035C11.3338 13.2984 10.7542 13.3734 8.80096 12.5641C6.48741 11.6061 4.93664 9.35816 4.62121 8.90094C4.5961 8.86453 4.57882 8.83948 4.5696 8.82733C4.56609 8.8225 4.56192 8.8168 4.55713 8.81025C4.39842 8.59326 3.56055 7.44771 3.56055 6.26444C3.56055 5.07964 4.14579 4.48487 4.40789 4.21852C4.41545 4.21083 4.42274 4.20342 4.42974 4.19628C4.6346 3.98649 4.97424 3.8916 5.29908 3.8916C5.39409 3.89207 5.48906 3.89536 5.58388 3.90147Z" fill="#2F3955"/>
</svg>
