<svg width="18" height="18" viewBox="0 0 18 18" fill="none" xmlns="http://www.w3.org/2000/svg">
<path fill-rule="evenodd" clip-rule="evenodd" d="M0.5 8.99997C0.5 4.31407 4.31163 0.502441 8.99753 0.502441V0.502582H9.00247C13.6884 0.502582 17.5 4.31421 17.5 9.00012C17.5 13.6859 13.6884 17.4976 9.00247 17.4976C7.27395 17.4976 5.67034 16.9832 4.32658 16.094L1.05944 17.1378L2.11855 13.9807C1.09948 12.5818 0.5 10.8583 0.5 8.99997ZM6.07606 4.39915C6.32576 4.4093 6.45067 4.42425 6.61549 4.81887C6.66872 4.94735 6.74184 5.12475 6.82198 5.31915C7.05025 5.87294 7.33544 6.56477 7.37979 6.65723C7.43971 6.78214 7.49977 6.95203 7.41475 7.11685C7.34039 7.27489 7.27468 7.35082 7.16532 7.47721C7.15712 7.48669 7.14868 7.49645 7.13997 7.50654C7.08651 7.56857 7.03398 7.62417 6.98158 7.67962C6.91154 7.75375 6.84175 7.82762 6.77029 7.91626L6.76428 7.92331C6.65108 8.05613 6.52806 8.20047 6.67047 8.44581C6.81527 8.69057 7.31479 9.50478 8.0492 10.1591C8.92079 10.9343 9.6406 11.2253 9.96527 11.3566C9.99421 11.3683 10.02 11.3787 10.0425 11.3881C10.2472 11.4731 10.4921 11.4531 10.642 11.2932C10.8044 11.1181 10.9997 10.8442 11.2029 10.5591C11.2372 10.5109 11.2718 10.4624 11.3065 10.414C11.4762 10.1742 11.6909 10.1442 11.9158 10.229C12.1456 10.309 13.3597 10.9085 13.6094 11.0334C13.6604 11.0589 13.7078 11.0817 13.7516 11.1028C13.9221 11.1847 14.0363 11.2396 14.0839 11.3231C14.144 11.428 14.144 11.9226 13.9391 12.5022C13.7343 13.0815 12.9199 13.5613 12.2705 13.7012C11.826 13.796 11.2464 13.8711 9.29315 13.0618C6.9796 12.1038 5.42883 9.85584 5.1134 9.39862C5.08829 9.36221 5.071 9.33716 5.06179 9.32502C5.05828 9.32018 5.05411 9.31448 5.04932 9.30793C4.8906 9.09094 4.05273 7.94539 4.05273 6.76212C4.05273 5.57732 4.63798 4.98255 4.90007 4.7162C4.90763 4.70851 4.91493 4.7011 4.92193 4.69396C5.12679 4.48417 5.46643 4.38928 5.79127 4.38928C5.88628 4.38975 5.98125 4.39304 6.07606 4.39915Z" fill="#B7CBEA"/>
</svg>
