<svg width="20" height="16" viewBox="0 0 20 16" fill="none" xmlns="http://www.w3.org/2000/svg">
<path d="M1.27495 7.06079C1.27495 7.06079 9.06343 3.8644 11.7646 2.73887C12.8001 2.2887 16.3116 0.848017 16.3116 0.848017C16.3116 0.848017 17.9324 0.217774 17.7973 1.74843C17.7523 2.37873 17.3921 4.58468 17.032 6.97076C16.4917 10.3473 15.9065 14.0389 15.9065 14.0389C15.9065 14.0389 15.8164 15.0744 15.0511 15.2545C14.2858 15.4345 13.0252 14.6242 12.8001 14.4441C12.62 14.3091 9.42357 12.2831 8.25306 11.2927C7.93791 11.0226 7.57777 10.4824 8.29805 9.85206C9.9188 8.36639 11.8546 6.52059 13.0252 5.35007C13.5654 4.8098 14.1056 3.54925 11.8546 5.0799C8.65825 7.28591 5.50684 9.35684 5.50684 9.35684C5.50684 9.35684 4.7865 9.80701 3.43591 9.40182C2.08527 8.9967 0.509562 8.45643 0.509562 8.45643C0.509562 8.45643 -0.570857 7.78114 1.27495 7.06079Z" fill="#E8EEF7"/>
</svg>
