<svg width="22" height="12" viewBox="0 0 22 12" fill="none" xmlns="http://www.w3.org/2000/svg">
<path d="M14.6801 5.97522C17.0041 7.2211 18.5759 9.03904 19.4038 11.4909C19.4217 11.5446 19.434 11.6009 19.456 11.6532C19.5509 11.8705 19.4973 11.9489 19.2456 11.9461C18.3206 11.9324 17.3951 11.9324 16.4692 11.9461C16.3767 11.9604 16.2822 11.9385 16.2054 11.8849C16.1286 11.8314 16.0754 11.7504 16.0567 11.6587C15.4654 10.0745 14.4588 8.85477 12.8938 8.1342C12.4546 7.93953 11.9926 7.80093 11.5187 7.72165C11.278 7.68315 11.2272 7.75603 11.2272 7.98018C11.2354 9.16831 11.2162 10.3578 11.2395 11.5446C11.2395 11.8897 11.1378 11.9571 10.8187 11.9475C8.85365 11.9214 6.98483 11.5349 5.2934 10.4912C3.41358 9.3237 2.20895 7.61852 1.44987 5.56817C0.831051 3.90562 0.572524 2.17018 0.501016 0.403121C0.49139 0.141843 0.546396 0.055209 0.828301 0.055209C1.68456 0.074461 2.54127 0.074461 3.39845 0.055209C3.67348 0.055209 3.77111 0.126717 3.77661 0.409997C3.78703 1.78338 4.03117 3.14498 4.49857 4.43643C5.03212 5.85833 5.82146 7.09046 7.1746 7.87429C7.37194 7.98744 7.5774 8.08581 7.78929 8.16857C8.15233 8.30609 8.16883 8.29509 8.17021 7.91555V3.39269C8.17021 2.38746 8.17983 1.38085 8.17021 0.375618C8.16196 0.112965 8.24171 0.055209 8.49199 0.055209C9.27995 0.0717107 10.0693 0.074461 10.8572 0.055209C11.1501 0.055209 11.2478 0.11434 11.2437 0.427874C11.2272 1.75352 11.2437 3.08053 11.2272 4.40342C11.2272 4.70733 11.3 4.77471 11.5957 4.69633C12.5817 4.4323 13.3559 3.85336 14.0311 3.11766C14.7653 2.33036 15.3178 1.39151 15.6496 0.367367C15.6571 0.318087 15.6744 0.270802 15.7004 0.228291C15.7264 0.185779 15.7607 0.148899 15.8012 0.119817C15.8417 0.0907357 15.8876 0.0700391 15.9362 0.058944C15.9848 0.0478489 16.0351 0.046579 16.0842 0.055209C16.8955 0.0703356 17.7068 0.0689604 18.5182 0.055209C18.763 0.055209 18.8303 0.103339 18.7671 0.363242C18.206 2.66799 16.8859 4.44055 14.9607 5.78545C14.8782 5.8432 14.8025 5.89683 14.6801 5.97522Z" fill="#E8EEF7"/>
</svg>
