<svg width="18" height="18" viewBox="0 0 18 18" fill="none" xmlns="http://www.w3.org/2000/svg">
<path d="M5.48438 9.84814C5.72183 15.1061 8.02854 17.9329 9.04621 17.9329C10.0639 17.9329 12.3367 15.1061 12.5628 9.84814H5.48438Z" fill="white"/>
<path d="M12.5176 8.15194C12.2801 2.84876 9.87165 0.0671387 9.04621 0.0671387C8.22077 0.0671387 5.72183 2.89399 5.48438 8.15194H12.5176Z" fill="white"/>
<path d="M14.2119 8.1521H17.9999C17.8356 6.43134 17.1817 4.7937 16.1156 3.43302C15.0495 2.07234 13.6158 1.04561 11.9844 0.474365C13.4024 2.78737 14.1718 5.43934 14.2119 8.1521Z" fill="white"/>
<path d="M3.79929 8.1521C3.84966 5.43616 4.63087 2.78396 6.06077 0.474365C4.42086 1.03851 2.97768 2.06216 1.90313 3.42338C0.828589 4.7846 0.167981 6.42602 0 8.1521H3.79929Z" fill="white"/>
<path d="M3.79929 9.84814H0C0.163178 11.5722 0.817824 13.2132 1.88617 14.5762C2.95451 15.9392 4.39165 16.9669 6.02685 17.5372C4.6105 15.2193 3.84129 12.5642 3.79929 9.84814Z" fill="white"/>
<path d="M14.2146 9.84814C14.1624 12.5673 13.3814 15.2227 11.9531 17.5372C13.5862 16.9651 15.021 15.9367 16.0872 14.5738C17.1534 13.211 17.8064 11.5709 17.9687 9.84814H14.2146Z" fill="white"/>
</svg>
