<svg width="40" height="41" viewBox="0 0 40 41" fill="none" xmlns="http://www.w3.org/2000/svg">
<path d="M39.7603 24.5276V20.577C39.7603 18.9197 39.7603 17.4467 39.7348 16.1325H0.267677C0.242188 17.4467 0.242188 18.9197 0.242188 20.577V24.5276C0.242188 31.9769 0.242188 35.7017 2.5571 38.0158C4.87203 40.3301 8.59781 40.3301 16.0494 40.3301H23.953C31.4046 40.3301 35.1305 40.3301 37.4453 38.0158C39.7603 35.7017 39.7603 31.9769 39.7603 24.5276Z" fill="#B7CBEA"/>
<path d="M11.6036 1.81156C11.6036 0.993367 10.9401 0.330078 10.1217 0.330078C9.30327 0.330078 8.63978 0.993367 8.63978 1.81156V4.93109C5.7958 5.15874 3.92877 5.71747 2.5571 7.08873C1.18543 8.45999 0.626521 10.3265 0.398798 13.1696H39.6036C39.3759 10.3265 38.817 8.45999 37.4453 7.08873C36.0736 5.71747 34.2066 5.15874 31.3627 4.93109V1.81156C31.3627 0.993367 30.6992 0.330078 29.8807 0.330078C29.0623 0.330078 28.3988 0.993367 28.3988 1.81156V4.8C27.0842 4.77452 25.6108 4.77452 23.953 4.77452H16.0494C14.3916 4.77452 12.9181 4.77452 11.6036 4.8V1.81156Z" fill="#B7CBEA"/>
</svg>
