<svg width="40" height="41" viewBox="0 0 40 41" fill="none" xmlns="http://www.w3.org/2000/svg">
<path d="M19.9999 40.3301C30.9215 40.3301 40 31.2712 40 20.3301C40 9.40852 30.9019 0.330078 19.9803 0.330078C9.03912 0.330078 0 9.40852 0 20.3301C0 31.2712 9.05878 40.3301 19.9999 40.3301ZM9.72547 22.4477C8.96073 22.4477 8.37244 21.8595 8.37244 21.0752C8.37244 20.3105 8.96073 19.7222 9.72547 19.7222H18.6274V7.85947C18.6274 7.09482 19.2156 6.50661 19.9803 6.50661C20.745 6.50661 21.3529 7.09482 21.3529 7.85947V21.0752C21.3529 21.8595 20.745 22.4477 19.9803 22.4477H9.72547Z" fill="#B7CBEA"/>
</svg>
