<svg width="40" height="35" viewBox="0 0 40 35" fill="none" xmlns="http://www.w3.org/2000/svg">
<path d="M22 20.3404C26.4182 20.3404 30 23.9346 30 28.3681V31.3785C30 33.041 28.6568 34.3889 27 34.3889H3C1.34314 34.3889 0 33.041 0 31.3785V28.3681C0 23.9346 3.58172 20.3404 8 20.3404H22ZM34 20.3408C37.3138 20.3408 40 23.0365 40 26.3616V29.372C40 31.0347 38.6568 32.3824 37 32.3824H34V28.3681C34 25.0858 32.4296 22.1718 30.0016 20.3408H34ZM15 0.27124C19.9706 0.27124 24 4.31462 24 9.30238C24 14.2901 19.9706 18.3335 15 18.3335C10.0294 18.3335 6 14.2901 6 9.30238C6 4.31462 10.0294 0.27124 15 0.27124ZM32 6.292C35.3138 6.292 38 8.9876 38 12.3128C38 15.638 35.3138 18.3335 32 18.3335C28.6862 18.3335 26 15.638 26 12.3128C26 8.9876 28.6862 6.292 32 6.292Z" fill="#B7CBEA"/>
</svg>
