<svg width="36" height="41" viewBox="0 0 36 41" fill="none" xmlns="http://www.w3.org/2000/svg">
<path d="M33.9387 10.4106H32.4336V17.6799H33.9387C34.7712 17.6799 35.4476 17.0049 35.4476 16.1724V11.9194C35.4476 11.087 34.7713 10.4106 33.9387 10.4106Z" fill="#B7CBEA"/>
<path d="M33.9387 27.8557H32.4336V35.125H33.9387C34.7712 35.125 35.4476 34.4488 35.4476 33.6162V29.3632C35.4476 28.5308 34.7713 27.8557 33.9387 27.8557Z" fill="#B7CBEA"/>
<path d="M33.9387 19.1338H32.4336V26.4018H33.9387C34.7712 26.4018 35.4476 25.7268 35.4476 24.8943V20.6413C35.4476 19.81 34.7713 19.1338 33.9387 19.1338Z" fill="#B7CBEA"/>
<path d="M26.7178 7.58352H24.4668V19.8541C24.4668 20.2471 24.2446 20.6036 23.893 20.7781C23.5415 20.9502 23.1216 20.9087 22.8115 20.6695L19.7499 18.3147L16.6884 20.6695C16.3783 20.9087 15.9596 20.9502 15.608 20.7781C15.2565 20.6036 15.0331 20.2471 15.0331 19.8541V7.58352H5.48242C4.83789 7.58352 4.26539 7.32469 3.8418 6.90359C3.41945 6.47758 3.16188 5.90625 3.16188 5.26172C3.16188 4.61719 3.41945 4.04469 3.8418 3.61984C4.26539 3.19867 4.83789 2.93992 5.48242 2.93992H26.2661C26.9863 2.93992 27.5698 2.35641 27.5698 1.635C27.5698 0.913594 26.9863 0.330078 26.2662 0.330078H5.48242C4.125 0.330078 2.88477 0.884297 1.99609 1.77539C1.105 2.66281 0.550781 3.9043 0.550781 5.26172V37.1074C0.550781 38.8872 1.99367 40.3301 3.77344 40.3301H26.7178C29.1714 40.3301 31.1588 38.3427 31.1588 35.8916V12.022C31.1588 9.57078 29.1714 7.58352 26.7178 7.58352Z" fill="#B7CBEA"/>
</svg>
