<svg width="40" height="33" viewBox="0 0 40 33" fill="none" xmlns="http://www.w3.org/2000/svg">
<path fill-rule="evenodd" clip-rule="evenodd" d="M21.25 5.08008V2.58008H23.75C24.4412 2.58008 25 2.02133 25 1.33008C25 0.640078 24.4412 0.0800781 23.75 0.0800781H16.25C15.5588 0.0800781 15 0.640078 15 1.33008C15 2.02133 15.5588 2.58008 16.25 2.58008H18.75V5.08008C8.29 5.72883 0 14.4563 0 25.0801V26.3301C0 27.0213 0.55875 27.5801 1.25 27.5801H38.75C39.4412 27.5801 40 27.0213 40 26.3301V25.0801C40 14.4563 31.71 5.72883 21.25 5.08008ZM38.75 30.0801H1.25C0.55875 30.0801 0 30.6401 0 31.3301C0 32.0213 0.55875 32.5801 1.25 32.5801H38.75C39.4412 32.5801 40 32.0213 40 31.3301C40 30.6401 39.4412 30.0801 38.75 30.0801Z" fill="#B7CBEA"/>
</svg>
