<svg width="40" height="35" viewBox="0 0 40 35" fill="none" xmlns="http://www.w3.org/2000/svg">
<path d="M38.307 29.8012V14.0248L35.7652 15.2957V29.7996L34.0703 34.1577H40.0011L38.307 29.8012Z" fill="#B7CBEA"/>
<path d="M17.3957 22.2074L6.96094 16.9902V22.1972C6.96094 25.7067 12.651 28.5517 19.6698 28.5517C26.6889 28.5517 32.3787 25.7067 32.3787 22.1972V16.9901L21.9431 22.2077C20.157 22.9152 19.1821 22.915 17.3957 22.2074Z" fill="#B7CBEA"/>
<path d="M20.8031 19.9345L38.8638 10.9042C39.4891 10.5915 39.4891 10.0801 38.8638 9.76739L20.8031 0.737053C20.178 0.4244 19.1549 0.4244 18.5296 0.737053L0.46882 9.76739C-0.156273 10.08 -0.156273 10.5915 0.46882 10.9042L18.5296 19.9345C19.1549 20.2472 20.178 20.2472 20.8031 19.9345Z" fill="#B7CBEA"/>
</svg>
