<svg width="40" height="41" viewBox="0 0 40 41" fill="none" xmlns="http://www.w3.org/2000/svg">
<path d="M2.91446 6.66341C2.55451 6.74083 2.2328 6.94127 2.00466 7.23024C1.77653 7.51922 1.65623 7.87866 1.66446 8.24674V34.8301C1.66446 35.2721 1.84005 35.696 2.15261 36.0086C2.46517 36.3211 2.8891 36.4967 3.33113 36.4967H3.74779L12.4978 34.0801V4.08008L2.91446 6.66341ZM36.6645 4.16341H36.2478L27.4978 6.58008V36.5801L37.0811 33.9967C37.4411 33.9193 37.7628 33.7189 37.9909 33.4299C38.2191 33.1409 38.3394 32.7815 38.3311 32.4134V5.83008C38.3311 5.38805 38.1555 4.96413 37.843 4.65157C37.5304 4.33901 37.1065 4.16341 36.6645 4.16341ZM15.8311 34.1634L24.1645 36.4967V6.49674L15.8311 4.16341V34.1634Z" fill="#B7CBEA"/>
</svg>
