<svg width="38" height="41" viewBox="0 0 38 41" fill="none" xmlns="http://www.w3.org/2000/svg">
<path d="M18.9991 6.70225V0.330078H2.19219C1.38959 0.330078 0.738281 0.980513 0.738281 1.78399V38.8762C0.738281 39.6788 1.38959 40.3301 2.19219 40.3301H27.1105C27.9131 40.3301 28.5644 39.6788 28.5644 38.8762V9.8953H22.1922C20.6713 9.8953 18.9991 8.22225 18.9991 6.70225Z" fill="#B7CBEA"/>
<path d="M22.6059 7.29094L27.2615 7.28572L21.6094 1.63354V6.29528C21.6094 6.5605 21.7137 6.81355 21.9007 6.99963C22.0876 7.18659 22.3407 7.29094 22.6059 7.29094Z" fill="#B7CBEA"/>
<path d="M36.6143 3.80835H34.4265C34.0708 3.80835 33.7812 4.09705 33.7812 4.45357V32.504H37.2595V4.45357C37.2595 4.09705 36.9699 3.80835 36.6143 3.80835Z" fill="#B7CBEA"/>
<path d="M34.9308 38.504C35.0212 38.7683 35.2699 38.9283 35.5473 38.9257C35.8256 38.924 36.0726 38.7692 36.1569 38.504L37.2595 35.1127H33.7812L34.9308 38.504Z" fill="#B7CBEA"/>
</svg>
