<svg width="40" height="41" viewBox="0 0 40 41" fill="none" xmlns="http://www.w3.org/2000/svg">
<path d="M39.9945 14.3349V38.3302C39.9934 38.6994 39.89 39.0612 39.6959 39.3753C39.5018 39.6894 39.2245 39.9437 38.8947 40.1098C38.6188 40.2595 38.3088 40.3353 37.9949 40.3298C37.5622 40.3298 37.1412 40.1895 36.7951 39.9299L29.3366 34.331H15.9992C14.9386 34.331 13.9213 33.9096 13.1713 33.1596C12.4213 32.4096 12 31.3924 12 30.3318V14.3349C12 13.2742 12.4213 12.257 13.1713 11.507C13.9213 10.757 14.9386 10.3357 15.9992 10.3357H35.9953C37.0559 10.3357 38.0731 10.757 38.8231 11.507C39.5731 12.257 39.9945 13.2742 39.9945 14.3349Z" fill="#B7CBEA"/>
<path d="M28.5383 8.3361H16.0008C14.4098 8.3361 12.884 8.96812 11.759 10.0931C10.634 11.2181 10.0019 12.7439 10.0019 14.3349V28.3322L4.683 30.3318C4.45804 30.3706 4.22809 30.3706 4.00313 30.3318C3.56132 30.3304 3.1324 30.1827 2.78337 29.9119C2.51884 29.7097 2.30896 29.4447 2.17278 29.1409C2.03659 28.8372 1.97842 28.5042 2.00352 28.1722L2.48343 22.0534C0.8676 19.8044 0.000156581 17.1042 0.00391843 14.3349C0.144697 10.4929 1.80172 6.86303 4.61235 4.23977C7.42299 1.61651 11.1583 0.213465 15.001 0.337675C17.7762 0.289581 20.5104 1.01158 22.9001 2.42351C25.2898 3.83544 27.2414 5.88205 28.5383 8.3361Z" fill="#B7CBEA"/>
</svg>
